<?xml version="1.0" encoding="UTF-8"?>
<svg width="1693px" height="314px" viewBox="0 0 1693 314" version="1.1" xmlns="http://www.w3.org/2000/svg" xmlns:xlink="http://www.w3.org/1999/xlink">
    <title>Frame</title>
    <g id="JUAN-ROZO" stroke="none" stroke-width="1" fill="none" fill-rule="evenodd" transform="translate(-0.2267, -0.0832)">
        <path d="M177.636353,0.341531721 L135.90425,0.341531721 C132.036824,0.341531721 128.719357,3.09878822 128.011252,6.90181061 L76.6170661,282.8629 C75.0910966,291.06147 67.9380727,297.005612 59.6001485,297.005612 L64.4105338,271.177635 C65.3310667,266.237954 61.5403496,261.677159 56.5175289,261.677159 L14.7842443,261.677159 C10.9168183,261.677159 7.5993506,264.434409 6.89124623,268.236256 L0.138295638,304.499524 C-0.782237309,309.439205 3.009662,314 8.03365799,314 L68.9860641,313.987015 C103.712663,313.979935 133.502594,289.217795 139.861361,255.073217 L185.531701,9.84200763 C186.449877,4.90350885 182.660335,0.341531721 177.636339,0.341531721 L177.636353,0.341531721 Z" fill="#ff3232" fill-rule="nonzero"></path>
        <path d="M386.638719,0.0212542561 L344.895991,0.0460413332 C341.025025,0.0483990783 337.707558,2.81273565 337.005357,6.61929807 L290.321246,259.746911 C290.126515,260.783239 289.729981,261.771175 289.15405,262.652883 L269.346028,293.002701 C267.86373,295.274836 265.334621,296.644016 262.622583,296.644016 L247.629662,296.644016 C243.999448,296.644016 240.82124,294.208998 239.877098,290.703421 L232.437287,263.086066 C232.123366,261.92108 232.076156,260.700615 232.29921,259.514382 L278.729587,9.50756319 C279.64658,4.57023987 275.85822,0.0129918971 270.837771,0.0106273179 L229.105668,0 C225.235878,0 221.916053,2.75843233 221.210306,6.56381247 L174.232329,259.517916 C174.010457,260.700608 174.056485,261.917526 174.368048,263.080147 L186.322021,307.668285 C187.262616,311.17741 190.442,313.618332 194.075753,313.618332 L309.827141,313.645478 C312.549804,313.645478 315.087174,312.266852 316.567115,309.981732 L347.23509,262.641067 C347.802753,261.764081 348.194572,260.784407 348.388121,259.757524 L394.542329,9.50283403 C395.449886,4.57141532 391.657993,0.0188828429 386.638712,0.021240588 L386.638719,0.0212542561 Z" fill="#ff3232" fill-rule="nonzero"></path>
        <path d="M589.589741,0.110292656 L431.653063,0.488019451 C427.792716,0.497457266 424.485874,3.25234918 423.778952,7.04710922 L368.328513,304.199844 C367.409162,309.138343 371.198697,313.70032 376.221518,313.70032 L417.954802,313.70032 C421.822228,313.70032 425.139696,310.94307 425.847801,307.141224 L459.174713,128.193795 C459.882818,124.391948 463.200286,121.634698 467.067712,121.634698 L508.799814,121.634698 C513.82381,121.634698 517.613352,126.196675 516.692819,131.135174 L484.540181,303.783186 C483.619648,308.722867 487.410365,313.283662 492.433186,313.283662 L534.16647,313.283662 C538.033896,313.283662 541.351364,310.526412 542.059468,306.724566 L597.502821,9.61078459 C598.423354,4.66402345 594.620836,0.0985062878 589.589754,0.110292656 L589.589741,0.110292656 Z M536.208164,26.9427467 L521.617687,104.694607 L463.550805,104.694607 L478.68889,24.0013674 C479.396994,20.1995205 482.714462,17.4422708 486.581888,17.4422708 L528.315173,17.4422708 C533.337993,17.4422708 537.127528,22.0030656 536.208177,26.9427467 L536.208164,26.9427467 Z" fill="#ff3232" fill-rule="nonzero"></path>
        <path d="M782.114987,0.837396275 L740.381702,0.837396275 C736.514276,0.837396275 733.196808,3.59464594 732.488704,7.39766833 L704.607112,157.120136 L676.900188,7.18284699 C676.196805,3.37510228 672.87698,0.611948002 669.004832,0.611948002 L624.290434,0.611948002 C620.423008,0.611948002 617.105541,3.36919767 616.397436,7.17222006 L561.081542,304.210464 C560.162191,309.148963 563.951726,313.71094 568.974547,313.71094 L610.707831,313.71094 C614.575257,313.71094 617.892725,310.953691 618.600829,307.150668 L646.540251,157.120136 L674.194067,307.360767 C674.895086,311.17087 678.216093,313.937564 682.090605,313.937564 L726.800288,313.937564 C730.667714,313.937564 733.985182,311.180314 734.693286,307.377292 L790.009181,10.3390476 C790.928531,5.39936657 787.138996,0.837389441 782.115,0.837389441 L782.114987,0.837396275 Z" fill="#ff3232" fill-rule="nonzero"></path>
        <path d="M1114.76753,0.266118047 L1011.92488,0.443167621 C1008.06453,0.452605436 1004.75769,3.20867964 1004.05194,7.00343967 L1004.04722,7.02232897 C1004.68334,3.6099952 1002.06453,0.458516884 998.59482,0.458516884 L951.812756,0.458516884 C949.140842,0.458516884 946.848946,2.36356811 946.360356,4.98980232 L890.120382,306.99369 C889.485447,310.406024 892.103072,313.557502 895.572782,313.557502 L942.356028,313.557502 C945.027942,313.557502 947.319838,311.652451 947.808428,309.026217 L978.304105,149.760786 C979.83479,141.772315 990.904814,140.861098 993.721891,148.49193 L1014.78444,259.400432 C1015.28602,260.758992 1015.41111,262.228502 1015.14557,263.651979 L1007.59129,304.211653 C1006.67194,309.151335 1010.46147,313.712129 1015.48429,313.712129 L1057.21758,313.712129 C1061.085,313.712129 1064.40247,310.95488 1065.11058,307.151857 L1073.21246,263.651986 C1073.478,262.228509 1073.3529,260.760181 1072.85133,259.400445 L1041.86352,121.600487 L1094.40719,121.631178 C1097.08029,121.632361 1099.37337,119.727309 1099.86314,117.099893 L1120.23175,6.82758606 C1120.86551,3.41288771 1118.2408,0.259051646 1114.76755,0.266118047 L1114.76753,0.266118047 Z M1059.02207,23.6921338 L1044.93553,100.235338 C1044.44694,102.85685 1042.1633,104.759544 1039.49729,104.766624 L992.680999,104.884671 C989.205385,104.892917 986.578317,101.739074 987.214435,98.3220248 L1001.32223,21.6607894 C1001.812,19.0333729 1004.10389,17.129504 1006.77581,17.129504 L1053.57085,17.129504 C1057.03938,17.129504 1059.65819,20.2809823 1059.02207,23.6921338 Z" fill="#ff3232" fill-rule="nonzero"></path>
        <path d="M1296.47171,50.544616 L1284.50121,6.01903666 C1283.55825,2.51227691 1280.38004,0.0748946663 1276.74983,0.0737192108 L1160.99254,0.0465736288 C1158.27106,0.0465736288 1155.73369,1.42402376 1154.25375,3.70796122 L1123.6082,50.9825279 C1123.03935,51.8595134 1122.64753,52.8403627 1122.45398,53.8684284 L1083.81157,259.583379 C1083.5897,260.766072 1083.63573,261.982989 1083.94729,263.145611 L1095.90127,307.733749 C1096.84186,311.242873 1100.02124,313.683795 1103.655,313.683795 L1219.40639,313.71094 C1222.12905,313.71094 1224.66642,312.332315 1226.14636,310.047196 L1256.81433,262.707712 C1257.382,261.830727 1257.77382,260.851053 1257.96737,259.82417 L1296.60978,54.1115837 C1296.83047,52.9277155 1296.78326,51.7084332 1296.47169,50.5446297 L1296.47171,50.544616 Z M1238.53463,54.1469909 L1199.90166,259.811185 C1199.70693,260.847513 1199.31039,261.835449 1198.73446,262.717157 L1178.92644,293.066975 C1177.44414,295.337928 1174.91503,296.70829 1172.203,296.70829 L1157.21007,296.70829 C1153.57986,296.70829 1150.40165,294.273273 1149.45751,290.767695 L1142.0177,263.15034 C1141.70378,261.985354 1141.65657,260.764889 1141.87962,259.578657 L1180.51849,53.8837709 C1180.71323,52.8462605 1181.11094,51.8583243 1181.68805,50.9742587 L1201.51496,20.6220831 C1202.99725,18.3523126 1205.52518,16.9831324 1208.23722,16.9831324 L1223.17703,16.9831324 C1226.80488,16.9831324 1229.98191,19.4169678 1230.92841,22.9190052 L1238.39772,50.5694099 C1238.71047,51.7367603 1238.75768,52.9595758 1238.53463,54.1469909 Z" fill="#ff3232" fill-rule="nonzero"></path>
        <path d="M1490.65296,12.0741362 C1493.63762,6.71661485 1489.75839,0.125657944 1483.62621,0.136272048 L1329.65727,0.395958046 C1325.79574,0.403038116 1322.48536,3.15793003 1321.77726,6.95505464 L1315.03257,43.173471 C1314.11322,48.1131521 1317.90275,52.6739469 1322.92557,52.6739469 L1364.65768,52.6739469 C1368.5251,52.6739469 1371.84257,49.9166972 1372.55067,46.1148503 L1376.74147,23.6118611 C1377.44958,19.8100141 1380.76704,17.051589 1384.63447,17.051589 L1416.14746,17.051589 C1422.27374,17.051589 1426.14353,23.6378304 1423.16123,28.9906295 L1271.18443,301.774271 C1268.20213,307.127063 1272.07192,313.713305 1278.19938,313.713305 L1432.18366,313.684978 C1436.0499,313.684978 1439.36737,310.927728 1440.07547,307.125881 L1446.81897,270.918085 C1447.73832,265.978404 1443.94879,261.417609 1438.92597,261.417609 L1397.19387,261.417609 C1393.32644,261.417609 1390.00897,264.174859 1389.30087,267.976706 L1385.15846,290.217657 C1384.45035,294.019504 1381.13288,296.776754 1377.26546,296.776754 L1345.70173,296.776754 C1339.57545,296.776754 1335.70566,290.190512 1338.68796,284.837713 L1490.65296,12.0741362 Z" fill="#ff3232" fill-rule="nonzero"></path>
        <path d="M1692.72533,50.544616 L1680.75484,6.01903666 C1679.81188,2.51227691 1676.63367,0.0748946663 1673.00345,0.0737192108 L1557.24617,0.0465736288 C1554.52469,0.0465736288 1551.98731,1.42402376 1550.50738,3.70796122 L1519.86182,50.9825279 C1519.29298,51.8595134 1518.90116,52.8403627 1518.70761,53.8684284 L1480.0652,259.583379 C1479.84333,260.766072 1479.88936,261.982989 1480.20092,263.145611 L1492.15489,307.733749 C1493.09549,311.242873 1496.27487,313.683795 1499.90862,313.683795 L1615.66001,313.71094 C1618.38267,313.71094 1620.92004,312.332315 1622.39999,310.047196 L1653.06796,262.707712 C1653.63562,261.830727 1654.02744,260.851053 1654.22099,259.82417 L1692.8634,54.1115837 C1693.08409,52.9277155 1693.03688,51.7084332 1692.72532,50.5446297 L1692.72533,50.544616 Z M1634.78825,54.1469909 L1596.15529,259.811185 C1595.96055,260.847513 1595.56402,261.835449 1594.98809,262.717157 L1575.18007,293.066975 C1573.69777,295.337928 1571.16866,296.70829 1568.45662,296.70829 L1553.4637,296.70829 C1549.83349,296.70829 1546.65528,294.273273 1545.71114,290.767695 L1538.27133,263.15034 C1537.95741,261.985354 1537.9102,260.764889 1538.13325,259.578657 L1576.77212,53.8837709 C1576.96685,52.8462605 1577.36457,51.8583243 1577.94167,50.9742587 L1597.76858,20.6220831 C1599.25088,18.3523126 1601.77881,16.9831324 1604.49084,16.9831324 L1619.43066,16.9831324 C1623.05851,16.9831324 1626.23554,19.4169678 1627.18203,22.9190052 L1634.65135,50.5694099 C1634.9641,51.7367603 1635.01131,52.9595758 1634.78825,54.1469909 Z" fill="#ff3232" fill-rule="nonzero"></path>
    </g>
</svg>
